<?xml version="1.0" encoding="UTF-8" standalone="no"?>
<svg
   xmlns:dc="http://purl.org/dc/elements/1.1/"
   xmlns:cc="http://creativecommons.org/ns#"
   xmlns:rdf="http://www.w3.org/1999/02/22-rdf-syntax-ns#"
   xmlns:svg="http://www.w3.org/2000/svg"
   xmlns="http://www.w3.org/2000/svg"
   viewBox="0 0 1047.6483 354.33072"
   height="354.33072"
   width="1047.6483"
   xml:space="preserve"
   version="1.1"
   id="svg3336"><metadata
     id="metadata3342"><rdf:RDF><cc:Work
         rdf:about=""><dc:format>image/svg+xml</dc:format><dc:type
           rdf:resource="http://purl.org/dc/dcmitype/StillImage" /><dc:title></dc:title></cc:Work></rdf:RDF></metadata><defs
     id="defs3340"><clipPath
       id="clipPath3352"
       clipPathUnits="userSpaceOnUse"><path
         id="path3354"
         d="m 0,47.155 110.24,0 L 110.24,0 0,0 0,47.155 Z" /></clipPath></defs><g
     transform="matrix(1.25,0,0,-1.25,-4.9295385,362.08821)"
     id="g3344"><path
       id="path3346"
       d="m 311.44145,289.67057 6.03221,0 6.03221,0 0,-9.77547 0,-9.77514 0,-9.77506 0,-9.77406 0,-9.77378 0,-9.77469 0,-9.77393 0,-9.77428 0,-9.77462 0,-9.77438 0,-9.77409 0,-9.77545 0,-9.77482 0,-9.77484 0,-9.77483 0,-9.77416 0,-9.77435 0,-9.77441 0,-9.77472 0,-9.77489 0,-9.774785 0,-9.774982 0,-9.774279 0,-9.775091 0,-9.774503 0,-9.773747 0,-9.774769 0,-9.775105 0,-9.775339 -6.03221,0 -6.03221,0 0,9.775472 0,9.775137 0,9.775063 0,9.774057 0,9.773784 0,9.774686 0,9.773936 0,9.774272 0,9.774621 0,9.774382 0,9.77409 0,9.77545 0,9.77482 0,9.77484 0,9.77483 0,9.77416 0,9.77435 0,9.77441 0,9.77472 0,9.77489 0,9.77478 0,9.77499 0,9.77428 0,9.77509 0,9.7745 0,9.77375 0,9.77477 0,9.7751 0,9.77534 0,0"
       style="fill:#100f0d;fill-opacity:1;fill-rule:nonzero;stroke:none" /><path
       id="path4574"
       d="m 377.04519,243.97682 3.90938,0 0,-6.525 0,-6.525 5.25624,0 5.25469,0 0,6.525 0,6.525 3.50157,0 1.73438,0.65 0.6,1.56094 0,6.77187 -5.83595,0 0,8.675 0,8.675 0,8.67344 0,8.67344 -5.76405,0 -5.76564,0 -5.24687,-7.05469 -5.25,-7.05625 -2.83281,-3.80938 6.00625,-8.00781 3.73281,5.22969 4.99531,6.99844 -0.29531,-3.2625 -0.0906,-2.93282 0,-7.40156 0,-7.4 -4.14063,0 0.23125,-8.98281 z"
       style="fill:#100f0d;fill-opacity:1;fill-rule:nonzero;stroke:none" /><path
       id="path3358"
       d="m 377.04519,243.97682 -0.23125,8.98281 -3.16093,0 -7.30156,0 4.99687,6.99844 1.26406,1.77031 -6.00625,8.00781 -2.41406,-3.24687 -5.24844,-7.05781 -5.24844,-7.05469 1.24062,-5.95937 1.15938,-1.74219 2.0375,-0.69844 7.60781,0 7.60626,0 3.69843,0 z"
       style="fill:#100f0d;fill-opacity:1;fill-rule:nonzero;stroke:none" /><path
       id="path3360"
       d="m 417.55575,259.46842 7.01018,0 7.01014,0 7.01023,0 0,-9.73865 -7.01018,0 -7.01014,0 -7.01023,0 0,9.73865 0,0"
       style="fill:#100f0d;fill-opacity:1;fill-rule:nonzero;stroke:none" /><path
       id="path3364"
       d="m 511.70672,230.92555 -6.62393,0 -6.62392,0 0,7.99363 0,7.99359 0,7.99369 -7.68134,0 -7.6813,0 -7.68139,0 0,-7.99363 0,-7.99359 0,-7.99369 -6.61982,0 -6.61981,0 0,9.45553 0,9.45468 0,9.45506 0,9.45517 0,9.45569 0,9.45459 6.61981,0 6.61982,0 0,-7.90323 0,-7.90319 0,-7.90329 7.68134,0 7.6813,0 7.68139,0 0,7.90323 0,7.90319 0,7.90329 6.62392,0 6.62393,0 0,-9.45553 0,-9.45468 0,-9.45506 0,-9.45517 0,-9.45569 0,-9.45459 0,0"
       style="fill:#100f0d;fill-opacity:1;fill-rule:nonzero;stroke:none" /><path
       id="path3368"
       d="m 365.63026,212.29555 1.10125,-1.02728 5.38731,-7.00912 5.38682,-7.00849 5.38705,-7.00877 5.3871,-7.00885 5.38739,-7.00923 5.38678,-7.00843 -0.15614,1.96417 -0.0329,1.84911 0,9.88263 0,9.88159 0,9.88261 0,9.88304 6.61571,0 0,-9.30211 0,-9.30128 0,-9.30166 0,-9.30175 0,-9.30228 0,-9.30119 -3.81328,0 -1.50394,0.3123 -1.18343,1.05194 -5.38046,7.00501 -5.37998,7.00438 -5.38019,7.00466 -5.38025,7.00474 -5.38055,7.00512 -5.37993,7.00432 0.11505,-1.91486 0.0411,-1.7094 0,-9.94222 0,-9.94117 0,-9.94219 0,-9.94263 -6.61571,0 0,9.30211 0,9.30128 0,9.30166 0,9.30175 0,9.30228 0,9.30119 3.88725,0 1.50394,-0.26298"
       style="fill:#100f0d;fill-opacity:1;fill-rule:nonzero;stroke:none" /><path
       id="path4579"
       d="m 439.21707,172.01901 -1.19531,5.44843 -2.62188,0 -6.94375,0 2.92032,7.55626 1.07343,2.77812 -6.16719,2.8625 -0.80624,-2.01875 -3.18907,-7.97344 -3.18593,-7.97031 -3.18907,-7.97343 -3.18593,-7.97032 5.85156,0 1.61875,0.53437 0.94531,1.24844 2.60938,6.73907 2.6078,6.73906 8.34532,0 4.5125,0 z"
       style="fill:#100f0d;fill-opacity:1;fill-rule:nonzero;stroke:none" /><path
       id="path3372"
       d="m 435.03894,212.55963 -3.18749,-7.97188 -3.18751,-7.97031 -2.38125,-5.95312 6.16719,-2.8625 1.84688,4.77657 2.92031,7.55624 0.80469,2.35 0.83749,2.94219 1.67656,-5.25938 2.91876,-7.56718 2.91719,-7.56563 2.91718,-7.56719 -6.94375,0 -4.32343,0 1.19531,-5.44843 3.83125,0 8.34375,0 2.61406,-6.73906 2.61406,-6.73907 0.92813,-1.28125 1.62656,-0.50156 5.84375,0 -3.18594,7.97188 -3.18593,7.97187 -3.18751,7.97188 -3.18593,7.97187 -3.18594,7.97187 -3.1875,7.97188 -3.18594,7.97031 -7.675,0 z"
       style="fill:#100f0d;fill-opacity:1;fill-rule:nonzero;stroke:none" /><path
       id="path3376"
       d="m 504.93322,212.5569 0,-6.3445 -9.01134,0 -9.01133,0 0,-9.8931 0,-9.89388 0,-9.89282 0,-9.89245 0,-9.89352 -7.5608,0 0,9.8931 0,9.89388 0,9.89282 0,9.89245 0,9.89352 -9.05243,0 -9.05242,0 0,6.3445 8.73762,0 8.7383,0 8.73737,0 8.73846,0 8.73657,0 0,0"
       style="fill:#100f0d;fill-opacity:1;fill-rule:nonzero;stroke:none" /><path
       id="path3378"
       d="m 521.82916,156.75649 -7.55259,0 0,9.30074 0,9.29991 0,9.30029 0,9.30038 0,9.30091 0,9.29982 7.55259,0 0,-9.30074 0,-9.29991 0,-9.30029 0,-9.30038 0,-9.30091 0,-9.29982 0,0"
       style="fill:#100f0d;fill-opacity:1;fill-rule:nonzero;stroke:none" /><path
       id="path4593"
       d="m 570.64519,211.55963 -3.83906,1.12032 -5.72344,0.49531 -5.71562,-0.49531 -5.50157,-1.60938 -4.65469,-2.49218 -4.0328,-3.40782 -3.25625,-4.23282 -2.34844,-4.8 -1.51407,-5.66093 -0.46718,-5.84375 0.46718,-5.84532 1.51407,-5.66093 2.34687,-4.79219 3.25782,-4.22344 4.03437,-3.38593 4.65312,-2.47344 5.50469,-1.59063 5.7125,-0.48749 5.72188,0.48749 5.5125,1.59063 4.6625,2.46875 4.04062,3.39062 0.57657,0.74688 -4.65313,6.20312 -1.45469,-2.52812 -6.22813,-4.31406 -8.17812,-1.5125 -8.13593,1.5125 -6.25469,4.31406 -3.99375,6.89532 -1.40469,9.20468 1.40469,9.22968 3.99375,6.91095 6.25469,4.33905 8.13593,1.52032 8.17812,-1.52032 0.10938,-0.0766 1.275,6.52344 z"
       style="fill:#100f0d;fill-opacity:1;fill-rule:nonzero;stroke:none" /><path
       id="path3382"
       d="m 570.64519,211.55963 -1.275,-6.52344 6.11875,-4.26249 3.97031,-6.91095 1.40469,-9.22968 -1.40469,-9.20468 -2.51562,-4.3672 4.65313,-6.20312 2.68437,3.475 2.34375,4.79375 1.51875,5.66093 0.47031,5.84532 -0.47031,5.84532 -1.51875,5.65936 -2.34531,4.80157 -3.25938,4.23125 -4.03906,3.40938 -4.66406,2.49062 -1.67188,0.48906 z"
       style="fill:#100f0d;fill-opacity:1;fill-rule:nonzero;stroke:none" /><path
       id="path3386"
       d="m 604.32498,212.29555 1.10947,-1.02728 5.38594,-7.00912 5.38545,-7.00849 5.38568,-7.00877 5.38573,-7.00885 5.38602,-7.00923 5.38541,-7.00843 -0.15614,1.96417 -0.0329,1.84911 0,9.88263 0,9.88159 0,9.88261 0,9.88304 6.62393,0 0,-9.30211 0,-9.30128 0,-9.30166 0,-9.30175 0,-9.30228 0,-9.30119 -3.81328,0 -1.51216,0.3123 -1.18343,1.05194 -5.38046,7.00501 -5.37998,7.00438 -5.38019,7.00466 -5.38025,7.00474 -5.38055,7.00512 -5.37993,7.00432 0.11505,-1.91486 0.0411,-1.7094 0,-9.94222 0,-9.94117 0,-9.94219 0,-9.94263 -6.61571,0 0,9.30211 0,9.30128 0,9.30166 0,9.30175 0,9.30228 0,9.30119 3.88725,0 1.50394,-0.26298"
       style="fill:#100f0d;fill-opacity:1;fill-rule:nonzero;stroke:none" /><path
       id="path4598"
       d="m 688.9655,193.65495 -5.04843,-5.6422 1.14843,-2.97812 2.91875,-7.56719 -5.93124,0 -0.0922,-5.44843 8.13438,0 2.60938,-6.73906 2.60937,-6.73907 0.92969,-1.28125 1.63438,-0.50156 5.83593,0 -3.18749,7.97188 -3.18595,7.97187 -3.18593,7.97188 -3.1875,7.97187 -2.00157,5.00938 z"
       style="fill:#100f0d;fill-opacity:1;fill-rule:nonzero;stroke:none" /><path
       id="path3390"
       d="m 673.73269,212.55963 -3.18593,-7.97188 -3.18595,-7.97031 -3.18593,-7.97187 -3.1875,-7.97344 -3.18593,-7.97031 -3.18595,-7.97343 -3.18593,-7.97032 5.84219,0 1.62812,0.53437 0.93593,1.24844 2.60938,6.73907 2.60938,6.73906 8.34688,0 8.34687,0 0.21249,0 0.0922,5.44843 -1.01094,0 -6.94219,0 -6.94063,0 2.9172,7.55626 2.91718,7.55469 2.91718,7.55624 0.80626,2.35 0.8375,2.94219 1.67656,-5.25938 2.91719,-7.56718 1.76875,-4.58751 5.04843,5.6422 -1.18437,2.96249 -3.18594,7.97188 -3.18594,7.97031 -7.67656,0 z"
       style="fill:#100f0d;fill-opacity:1;fill-rule:nonzero;stroke:none" /><path
       id="path3394"
       d="m 718.32306,163.0977 8.04842,0 8.04838,0 8.04848,0 0,-6.3445 -7.9246,0 -7.92376,0 -7.92458,0 -7.92493,0 0,9.30074 0,9.29991 0,9.30029 0,9.30038 0,9.30091 0,9.29982 7.55259,0 0,-9.89146 0,-9.89223 0,-9.89118 0,-9.89081 0,-9.89187 0,0"
       style="fill:#100f0d;fill-opacity:1;fill-rule:nonzero;stroke:none" /><path
       id="path3398"
       d="m 381.73067,104.77675 0,-7.399174 0,-7.399141 0,-7.399232 -7.5115,0 0,7.399174 0,7.399141 0,7.399232 -5.1139,8.40127 -5.11337,8.40038 -5.11389,8.40124 -5.11411,8.40162 6.62392,0 1.59435,-0.50954 1.01084,-1.24917 4.2598,-7.22933 4.25978,-7.2293 4.25983,-7.22939 1.30671,-2.5641 0.9451,-2.37508 0.93688,2.40795 1.28205,2.53123 4.24336,7.22933 4.24334,7.2293 4.2434,7.22939 0.96154,1.19164 1.57791,0.56707 6.68967,0 -5.11801,-8.40127 -5.11748,-8.40038 -5.118,-8.40124 -5.11822,-8.40162 0,0"
       style="fill:#100f0d;fill-opacity:1;fill-rule:nonzero;stroke:none" /><path
       id="path4604"
       d="m 446.59207,86.79401 -4.16875,5.904688 -3.84063,-2.656256 -1.47968,-0.271872 -1.08751,-7.295312 0.11095,0.0094 5.51249,1.590624 4.66407,2.475 0.28906,0.243752 z"
       style="fill:#100f0d;fill-opacity:1;fill-rule:nonzero;stroke:none" /><path
       id="path3402"
       d="m 430.40457,138.9987 -5.71094,-0.49063 -5.49844,-1.61406 -4.65469,-2.4875 -4.03125,-3.40469 -3.25937,-4.23438 -2.35469,-4.79687 -1.51406,-5.6625 -0.46563,-5.84375 0.46563,-5.84375 1.51406,-5.660936 2.34844,-4.793752 3.26562,-4.221872 4.03282,-3.390624 4.65312,-2.478128 5.5,-1.590624 5.70938,-0.487504 5.61093,0.478128 1.08751,7.295312 -6.69844,-1.232816 -8.13594,1.504688 -6.25313,4.314064 -3.99531,6.895314 -1.39687,9.2125 1.39687,9.22969 3.99531,6.90312 6.25313,4.33906 8.13594,1.52813 8.17812,-1.52813 6.2375,-4.33906 3.96875,-6.90312 1.40625,-9.22969 -1.40625,-9.2125 -3.96875,-6.895314 -2.39687,-1.657808 4.16875,-5.904688 3.75,3.15 3.26562,4.221872 2.34844,4.793752 1.51094,5.660936 0.46874,5.84375 -0.46874,5.84375 -1.51094,5.6625 -2.35468,4.79687 -3.25938,4.23438 -4.0375,3.40781 -4.66563,2.48438 -5.51093,1.6125 -5.72344,0.49219 z"
       style="fill:#100f0d;fill-opacity:1;fill-rule:nonzero;stroke:none" /><path
       id="path3406"
       d="m 489.9431,88.578541 6.18836,1.166994 4.61866,3.270872 2.8764,5.021363 0.98619,6.41847 0,8.4814 0,8.4805 0,8.48137 0,8.48175 7.51972,0 0,-8.4814 0,-8.4805 0,-8.48137 0,-8.48175 -1.53682,-8.949697 -4.39677,-7.149895 -6.99375,-4.725505 -9.26199,-1.709401 -9.27021,1.709401 -7.0184,4.725505 -4.40499,7.149895 -1.54504,8.949697 0,8.4814 0,8.4805 0,8.48137 0,8.48175 7.51972,0 0,-8.46907 0,-8.46817 0,-8.46905 0,-8.46942 0.99441,-6.426689 2.87639,-5.021363 4.62689,-3.295526 6.22123,-1.183431"
       style="fill:#100f0d;fill-opacity:1;fill-rule:nonzero;stroke:none" /><path
       id="path3410"
       d="m 563.10789,138.38043 0,-6.3445 -9.01134,0 -9.01133,0 0,-9.89146 0,-9.89223 0,-9.89118 0,-9.890811 0,-9.891872 -7.5608,0 0,9.89146 0,9.892233 0,9.89118 0,9.89081 0,9.89187 -9.05243,0 -9.05242,0 0,6.3445 8.73762,0 8.7383,0 8.73737,0 8.73846,0 8.73657,0 0,0"
       style="fill:#100f0d;fill-opacity:1;fill-rule:nonzero;stroke:none" /><path
       id="path3414"
       d="m 616.30393,82.580848 -7.59368,0 0,8.462068 0,8.46203 0,8.462134 -7.51368,0 -7.51288,0 -7.51366,0 -7.51399,0 0,-8.462068 0,-8.46203 0,-8.462134 -7.6019,0 0,9.300744 0,9.299908 0,9.30029 0,9.30038 0,9.30091 0,9.29982 7.6019,0 0,-8.29496 0,-8.29493 0,-8.29503 7.51368,0 7.51288,0 7.51366,0 7.51399,0 0,8.29496 0,8.29493 0,8.29503 7.59368,0 0,-9.30074 0,-9.29991 0,-9.30029 0,-9.30038 0,-9.300907 0,-9.299825 0,0"
       style="fill:#100f0d;fill-opacity:1;fill-rule:nonzero;stroke:none" /><path
       id="path3418"
       d="m 388.81317,55.489321 -0.73964,-0.879355 -1.01085,-0.287639 -1.53682,0.657461 -2.21893,1.462852 -3.22978,1.462852 -4.56936,0.657462 -4.48717,-0.673898 -3.25444,-1.857329 -1.96417,-2.744902 -0.66568,-3.402364 1.15878,-3.879023 3.03254,-2.629847 4.28172,-1.881984 4.90631,-1.66009 4.91452,-1.931294 4.28172,-2.70381 3.02433,-4.010516 1.15877,-5.834972 -1.24918,-6.878692 -3.64069,-5.588423 -5.87606,-3.739313 -7.92241,-1.3642328 -5.04375,0.4687894 -4.83461,1.5035954 -7.61012,5.317221 2.17784,3.574947 0.7643,0.723208 0.99441,0.295858 1.86555,-0.879355 2.62162,-1.931294 3.8215,-1.923075 5.46515,-0.871137 4.79125,0.731426 3.56673,2.079223 2.23537,3.221562 0.78073,4.166662 -1.15055,4.142008 -3.01611,2.712029 -4.25706,1.849111 -4.90631,1.553253 -4.91452,1.857329 -4.25707,2.720248 -3.0161,4.191317 -1.15056,6.204794 1.15056,5.719916 3.3284,4.914525 5.39118,3.418801 7.38001,1.290268 8.52234,-1.479289 6.73898,-4.281718 -1.83267,-3.583166 0,0"
       style="fill:#100f0d;fill-opacity:1;fill-rule:nonzero;stroke:none" /><path
       id="path3422"
       d="m 440.83482,19.93462 1.1259,-0.509533 2.95858,-3.22978 -3.81089,-3.549952 -4.48956,-2.638405 -5.77071,-1.7321359 -6.01429,-0.486797 -5.58156,0.4870264 -5.36518,1.6004141 -4.49871,2.4670184 -3.86749,3.367953 -3.139,4.236276 -2.23574,4.779166 -1.46075,5.701406 -0.44589,5.869918 0.47885,5.874129 1.55928,5.680759 2.41348,4.812551 3.33109,4.227546 4.12352,3.392018 4.73577,2.467608 5.59804,1.590916 5.8007,0.488306 5.40005,-0.420162 5.20152,-1.486476 7.93063,-5.17751 -2.44904,-3.46811 -0.63281,-0.641025 -1.01085,-0.254767 -1.06837,0.369823 -1.3478,0.920446 -1.82445,1.166994 -2.49836,1.166995 -3.34483,0.912227 -4.405,0.378041 -8.18539,-1.545035 -6.41847,-4.380338 -4.1831,-6.93622 -1.50394,-9.138716 1.50394,-9.311299 4.0927,-6.911565 6.13083,-4.298156 7.62655,-1.487506 4.48718,0.295857 3.67356,0.912228 3.16404,1.577908 2.93392,2.276461 1.28205,0.583497"
       style="fill:#100f0d;fill-opacity:1;fill-rule:nonzero;stroke:none" /><path
       id="path3424"
       d="m 463.81639,8.4167146 -7.55259,0 0,9.3007444 0,9.299908 0,9.300288 0,9.300385 0,9.300902 0,9.299825 7.55259,0 0,-9.300744 0,-9.299909 0,-9.300287 0,-9.300385 0,-9.300903 0,-9.2998244 0,0"
       style="fill:#100f0d;fill-opacity:1;fill-rule:nonzero;stroke:none" /><path
       id="path3428"
       d="m 513.15067,64.212193 0,-6.155484 -8.93051,0 -8.93047,0 -8.93058,0 0,-9.270208 0,-9.270209 7.22933,0 7.2293,0 7.22938,0 0,-5.917154 -7.22933,0 -7.2293,0 -7.22938,0 0,-9.516757 0,-9.516756 8.93051,0 8.93047,0 8.93058,0 0,-6.1554846 -8.5944,0 -8.59349,0 -8.59438,0 -8.59475,0 0,9.3007446 0,9.299908 0,9.300288 0,9.300385 0,9.300902 0,9.299825 8.5944,0 8.59349,0 8.59438,0 8.59475,0 0,0"
       style="fill:#100f0d;fill-opacity:1;fill-rule:nonzero;stroke:none" /><path
       id="path3432"
       d="m 529.40558,63.95907 1.10947,-1.035502 5.38731,-7.009118 5.38682,-7.008487 5.38705,-7.008774 5.3871,-7.008847 5.38739,-7.009236 5.38678,-7.008425 -0.15615,1.972385 -0.0411,1.840892 0,9.882634 0,9.881592 0,9.882608 0,9.883044 6.62393,0 0,-9.300744 0,-9.299909 0,-9.300287 0,-9.300385 0,-9.300903 0,-9.2998243 -3.81328,0 -1.50394,0.3122943 -1.19165,1.0519385 -5.38046,7.0036385 -5.37997,7.003009 -5.3802,7.003295 -5.38025,7.003368 -5.38054,7.003758 -5.37993,7.002946 0.11505,-1.914857 0.0493,-1.7094 0,-9.940163 0,-9.939115 0,-9.940137 0,-9.9405753 -6.61571,0 0,9.3007443 0,9.299908 0,9.300288 0,9.300385 0,9.300902 0,9.299825 3.87903,0 1.50394,-0.254766"
       style="fill:#100f0d;fill-opacity:1;fill-rule:nonzero;stroke:none" /><path
       id="path3436"
       d="m 622.22026,19.93462 1.1259,-0.509533 2.95858,-3.22978 -3.81196,-3.548441 -4.48849,-2.639916 -5.77071,-1.7321359 -6.01429,-0.486797 -5.58156,0.4870264 -5.36518,1.6004141 -4.49871,2.4670184 -3.86749,3.367953 -3.139,4.236276 -2.23574,4.779166 -1.46483,5.699989 -0.45003,5.871335 0.48302,5.875543 1.56333,5.679345 2.41348,4.812551 3.33109,4.227546 4.12352,3.392018 4.73577,2.467608 5.59804,1.590916 5.8007,0.488306 5.40005,-0.420162 5.20152,-1.486476 7.93063,-5.17751 -2.44904,-3.46811 -0.63281,-0.641025 -1.01085,-0.254767 -1.06837,0.369823 -1.35602,0.920446 -1.81623,1.166994 -2.49836,1.166995 -3.34483,0.912227 -4.405,0.378041 -8.18539,-1.545035 -6.41847,-4.380338 -4.1831,-6.93622 -1.50394,-9.138716 1.50394,-9.311299 4.0927,-6.911565 6.13083,-4.298156 7.62655,-1.487506 4.48718,0.295857 3.67356,0.912228 3.16404,1.577908 2.93392,2.276461 1.28205,0.583497"
       style="fill:#100f0d;fill-opacity:1;fill-rule:nonzero;stroke:none" /><path
       id="path3440"
       d="m 670.61847,64.212193 0,-6.155484 -8.93051,0 -8.93047,0 -8.93058,0 0,-9.270208 0,-9.270209 7.22933,0 7.2293,0 7.22938,0 0,-5.917154 -7.22933,0 -7.2293,0 -7.22938,0 0,-9.516757 0,-9.516756 8.93051,0 8.93047,0 8.93058,0 0,-6.1554846 -8.5944,0 -8.59349,0 -8.59438,0 -8.59475,0 0,9.3007446 0,9.299908 0,9.300288 0,9.300385 0,9.300902 0,9.299825 8.5944,0 8.59349,0 8.59438,0 8.59475,0 0,0"
       style="fill:#100f0d;fill-opacity:1;fill-rule:nonzero;stroke:none" /><path
       id="path4609"
       d="m 721.25769,63.89401 -3.87344,0.320312 -6.95624,0 -6.95469,0 -6.95625,0 0,-9.3 0,-9.301568 0,-9.3 0,-9.3 0,-9.3 0,-9.30156 6.95625,0 6.95469,0 6.95624,0 5.70156,0.468752 5.50782,1.537496 4.64062,2.376568 4.04532,3.285936 3.26562,4.104688 2.34844,4.696872 1.51718,5.609376 0.46251,5.796872 -0.46251,5.801568 -1.51718,5.614064 -2.35156,4.696872 -3.2625,4.112496 -2.34219,1.915632 -4.08281,-5.478128 0.90312,-0.620312 3.96876,-6.845312 1.40624,-9.19688 -1.40624,-9.187496 -3.96876,-6.837504 -6.2375,-4.257808 -8.13594,-1.478128 -6.63749,0 -6.63595,0 0,8.710936 0,8.714064 0,8.712504 0,8.714064 0,8.712496 6.63595,0 6.63749,0 4.45938,-0.810936 -0.58594,6.614064 z"
       style="fill:#100f0d;fill-opacity:1;fill-rule:nonzero;stroke:none" /><path
       id="path3444"
       d="m 721.25769,63.89401 0.58594,-6.614064 3.67656,-0.668752 5.33438,-3.660936 4.08281,5.478128 -1.7,1.390624 -4.64375,2.389064 -5.50782,1.534368 -1.82812,0.151568 z"
       style="fill:#100f0d;fill-opacity:1;fill-rule:nonzero;stroke:none" /><path
       id="path4614"
       d="m 776.12801,23.675258 -0.0953,5.44844 -6.22031,0 -6.94219,0 2.91719,7.554688 1.69531,4.392184 -5.50624,4.467184 -2.09376,-5.237496 -3.1875,-7.971872 -3.1875,-7.97188 -3.1875,-7.971872 -3.1875,-7.97188 5.85156,0 1.61876,0.534376 0.94531,1.25 2.60937,6.739064 2.60938,6.739064 8.34374,0 7.0172,0 z"
       style="fill:#100f0d;fill-opacity:1;fill-rule:nonzero;stroke:none" /><path
       id="path3448"
       d="m 769.44519,64.215882 -3.1875,-7.971872 -3.1875,-7.97188 -1.09374,-2.734376 5.50624,-4.467184 1.22188,3.164064 2.91875,7.554688 0.80469,2.35 0.82968,2.95156 1.68438,-5.268752 2.91874,-7.565624 2.9172,-7.567184 2.91718,-7.565624 -6.94218,0 -0.72032,0 0.0953,-5.44844 1.32656,0 8.34531,0 2.60781,-6.739064 2.60938,-6.739064 0.9375,-1.273432 1.62656,-0.510944 5.84375,0 -3.18594,7.97188 -3.18593,7.971872 -3.18751,7.97188 -3.18593,7.971872 -3.18594,7.971872 -3.1875,7.97188 -3.18594,7.971872 -7.675,0 z"
       style="fill:#100f0d;fill-opacity:1;fill-rule:nonzero;stroke:none" /><path
       id="path3452"
       d="m 821.58234,30.608509 0,-7.399174 0,-7.399141 0,-7.399232 -7.50328,0 0,7.399174 0,7.399141 0,7.399232 -5.1139,8.401266 -5.11337,8.400381 -5.11389,8.401244 -5.11411,8.401615 6.6157,0 1.61078,-0.509533 1.00263,-1.249177 4.2598,-7.22933 4.25978,-7.229298 4.25983,-7.229386 1.29849,-2.572319 0.95332,-2.37508 0.93688,2.416171 1.28205,2.531228 4.2461,7.22933 4.24608,7.229298 4.24614,7.229386 0.9451,1.183431 1.58613,0.575279 6.68967,0 -5.12007,-8.401266 -5.11953,-8.400381 -5.12005,-8.401244 -5.12028,-8.401615 0,0"
       style="fill:#100f0d;fill-opacity:1;fill-rule:nonzero;stroke:none" /><path
       id="path4569"
       d="m 269.60925,71.22213 -2.42344,-1.55312 -1.10156,-2.45 0.37813,-2.637504 1.86563,-2.317184 2.60468,-1.389064 1.42969,-0.214064 1.28281,0.19688 2.35,1.734368 1.06875,2.793752 -1.10937,2.975 -0.2875,0.378128 -1.825,-1.34688 0.2875,-0.370312 0.75624,-1.709376 -0.575,-1.537496 -1.2,-0.854688 -0.71562,-0.106248 -0.80469,0.148432 -1.83281,1.018752 -1.21719,1.356248 -0.43437,1.454688 0.66563,1.568752 1.18281,0.77344 1.58593,-0.214064 0.39531,-0.14844 0.97813,1.97344 -0.46875,0.189064 -2.83594,0.287496 z"
       style="fill:#100f0d;fill-opacity:1;fill-rule:nonzero;stroke:none" /><path
       id="path4567"
       d="m 277.44207,81.650258 -4.60313,-5.571872 1.61875,-1.32344 2.7375,3.337496 0.76406,-2.162496 1.7922,-3.04844 2.02968,-2.235936 0.36094,-0.295312 1.33125,1.660936 -0.28751,0.270312 -1.8328,2.02188 -1.73282,3.164056 -0.92187,3.007816 -0.0484,0.181248 -1.20781,0.993752 z"
       style="fill:#100f0d;fill-opacity:1;fill-rule:nonzero;stroke:none" /><path
       id="path4565"
       d="m 244.96707,246.87057 -2.8625,1.48906 -6.69688,5.475 -5.34375,6.8 -1.64218,3.36406 -14.91875,-12.89062 2.61406,-2.7 -4.99688,-4.83281 -4.99687,-4.83281 -4.99687,-4.83126 4.65156,-4.81406 4.65156,-4.8125 4.65156,-4.81406 5.00468,4.83281 5.00469,4.83281 5.00626,4.83126 2.74374,-2.84532 12.12657,15.74844 z"
       style="fill:#100f0d;fill-opacity:1;fill-rule:nonzero;stroke:none" /><path
       id="path4563"
       d="m 279.4905,84.098698 -0.51249,-1.32188 0.74062,-2.120312 2.09531,-2.17812 4.05938,-1.890632 0.0906,0 2.41719,1.22032 -1.6125,1.140624 -0.94375,-0.314064 -2.62187,1.512496 -2.12032,2.382816 0.0734,0.389064 -1.66563,1.179688 z"
       style="fill:#100f0d;fill-opacity:1;fill-rule:nonzero;stroke:none" /><path
       id="path4561"
       d="m 279.4905,84.098698 1.66563,-1.179688 0.12344,0.654688 0.92031,0.393744 0.17344,0 2.71093,-1.520312 2.05469,-2.259376 -0.15625,-1.167184 -0.21406,-0.07187 1.6125,-1.140624 0.0734,0.0375 0.78906,1.996872 -0.74062,2.120312 -2.08751,2.170312 -2.09531,1.354688 -1.67656,0.493752 -1.56094,-0.189064 -1.33124,-1.018744 -0.26095,-0.675 z"
       style="fill:#100f0d;fill-opacity:1;fill-rule:nonzero;stroke:none" /><path
       id="path4698"
       d="m 238.72488,51.514322 2.21093,4.50312 0.0172,0.08282 0.34531,0.960936 3.58281,8.045312 5.72032,6.685936 4.70156,3.285944 -16.0422,15.579688 -0.23124,-0.229688 -4.29844,-4.290632 -4.91094,4.925 -4.9125,4.926568 -4.9125,4.924998 -4.74374,-4.72031 -4.74532,-4.720312 -4.74375,-4.720312 4.90312,-4.935944 4.90313,-4.935936 4.90469,-4.937496 -4.10782,-4.079688 22.35938,-16.35 z"
       style="fill:#100f0d;fill-opacity:1;fill-rule:nonzero;stroke:none" /><path
       id="path4696"
       d="m 264.40769,63.69401 -1.89062,-0.370312 -1.60157,-1.381256 -0.99531,-1.75 0,-1.865624 1.01094,-1.404688 1.45468,-0.617184 1.60313,0.246872 1.775,1.134376 1.42187,1.003128 0.78907,0.229688 0.56719,-0.181256 0.32812,-0.542184 -0.0406,-0.771872 -0.60938,-0.987504 -1.00156,-0.870312 -0.95313,-0.221872 -1.04374,0.37812 -0.37813,0.254688 -1.19218,-1.742184 0.37031,-0.239064 1.93905,-0.829688 0.45157,-0.025 1.64375,0.428128 1.87344,1.568744 0.9625,1.915632 -0.0578,1.939056 -1.00312,1.454688 -1.65937,0.69844 -1.825,-0.378128 -1.97188,-1.306248 -1.54531,-0.978128 -0.61563,0.181256 -0.28906,0.723432 0.63281,1.29844 1.15938,0.845312 1.225,-0.30312 0.37812,-0.27188 1.24062,1.767192 -0.37031,0.287496 -1.78281,0.682816 z"
       style="fill:#100f0d;fill-opacity:1;fill-rule:nonzero;stroke:none" /><path
       id="path4559"
       d="m 257.80769,57.933066 -1.39688,-1.734368 4.88126,-3.887504 1.47969,-1.782808 -0.71407,-1.651568 -0.94531,-0.723432 -0.97031,-0.025 -1.4875,0.92812 -4.88125,3.945312 -1.38125,-1.742184 4.88125,-3.912504 2.31875,-1.346872 0.99374,-0.14844 1.225,0.24688 1.97188,1.545312 1.14219,2.375 -0.45156,2.10312 -1.79219,1.92344 -4.87344,3.887496 z"
       style="fill:#100f0d;fill-opacity:1;fill-rule:nonzero;stroke:none" /><path
       id="path4557"
       d="m 255.89207,38.126818 0.83125,2.531256 -1.30625,2.324992 -1.75938,0.74844 -1.03593,-0.123432 -0.13907,0.682808 -0.8875,1.27344 -2.28438,0.657808 -2,-1.2 1.48751,-1.195312 0.59375,0.315624 0.11562,0.01563 0.73907,-0.278128 0.42031,-0.715624 -0.22031,-0.662504 1.59218,-1.279688 0.88751,0.495312 0.14843,0 1.00157,-0.385936 0.65,-1.035936 -0.31564,-0.978128 1.48126,-1.190624 z"
       style="fill:#100f0d;fill-opacity:1;fill-rule:nonzero;stroke:none" /><path
       id="path4555"
       d="m 255.89207,38.126818 -1.48126,1.190624 -0.0453,-0.139056 -0.68281,-0.484376 -0.81406,-0.075 -0.71406,0.370312 -0.64219,1.010936 0.3375,1.117184 0.18906,0.104688 -1.59218,1.279688 -0.0438,-0.134376 -0.78907,-0.460936 -0.0891,-0.01562 -0.76563,0.295312 -0.38593,0.72344 0.24687,0.821872 0.17813,0.09531 -1.48751,1.195312 -0.17812,-0.107808 -0.80468,-2.357816 1.10937,-2.062496 1.44531,-0.592192 0.675,0.07344 0.0891,-1.010936 1.08593,-1.643752 2.24376,-0.796872 0.39374,0.03281 2.47344,1.42188 0.0484,0.148432 z"
       style="fill:#100f0d;fill-opacity:1;fill-rule:nonzero;stroke:none" /><path
       id="path4553"
       d="m 21.307693,76.725258 5.832813,-3.70156 5.970312,-6.42344 3.773438,-7.910936 3.615624,-8.634376 1.843751,-2.543752 21.2,18.968752 -1.20625,1.195312 -4.307813,4.268752 4.904688,4.937496 4.903125,4.935936 4.903125,4.935944 -4.74375,4.720312 -4.745312,4.720312 -4.743751,4.72031 -4.909375,-4.924998 -4.909374,-4.926568 -4.909376,-4.925 -4.29375,4.290632 -0.6,0.598432 -17.578125,-14.30156 z"
       style="fill:#100f0d;fill-opacity:1;fill-rule:nonzero;stroke:none" /><path
       id="path4551"
       d="m 49.932693,264.42213 -1.385937,-2.57812 -5.370312,-8.02813 -7.795313,-5.75781 -8.523438,-4.65625 -0.103125,-0.0812 15.179688,-14.75312 0.990624,1.02812 4.207813,4.37188 5.001563,-4.83126 5.003125,-4.83281 5.001563,-4.83281 4.651562,4.81406 4.651562,4.8125 4.651563,4.81406 -4.993751,4.83126 -4.993749,4.83281 -4.99375,4.83281 3.31875,3.43906 -14.498438,12.575 z"
       style="fill:#100f0d;fill-opacity:1;fill-rule:nonzero;stroke:none" /><path
       id="path4712"
       d="m 49.932693,264.42213 14.498438,-12.575 0.892187,0.925 4.2125,4.3625 6.529688,-6.30781 6.529687,-6.30937 6.528126,-6.30938 6.529688,-6.30781 6.529683,-6.30938 6.52969,-6.30937 -4.22031,-4.36406 -4.22031,-4.36407 -5.267193,5.09063 -5.268752,5.08906 -5.267184,5.09062 -4.659375,-4.80781 -4.660938,-4.80781 -4.659374,-4.80781 5.276562,-5.10938 5.276562,-5.10781 5.275003,-5.10937 -4.228127,-4.35626 -4.228126,-4.35469 -6.523437,6.30938 -6.525,6.31094 -6.523437,6.30937 -6.523438,6.31094 -6.525,6.31094 -6.523438,6.30937 3.217188,3.34376 -15.179688,14.75312 -7.621875,-6.0125 -6.181249,-7.65312 -3.9968757,-8.97344 -1.0890625,-9.75782 1.8109375,-9.13281 3.4109377,-8.66093 4.965625,-7.87032 6.304687,-6.85 7.343751,-5.725 8.107812,-4.58281 8.6875,-3.34843 8.917188,-1.28907 8.964062,-0.89844 8.982812,-0.71406 8.992189,-0.59219 8.99844,-0.5 9.000003,-0.42812 3.92031,-3.09688 -3,-3.625 -5.728129,-0.14844 -8.571872,0.0422 -6.820315,0.0766 -6.821876,0.0297 -9.99375,-0.0906 -9.9875,-0.37813 -9.932812,-1.05937 -8.721875,-2.98281 -8.079687,-4.45626 -7.323438,-5.61562 -6.45,-6.6 -5.5031252,-7.40781 -3.840625,-7.92657 -1.5375,-8.66718 0.9078125,-8.760938 2.875,-8.042192 4.4874997,-7.270312 6.139063,-5.898432 1.356249,-0.72344 1.582813,-1.004688 17.578125,14.30156 -3.69375,3.690624 6.404688,6.434378 6.404688,6.43281 6.404687,6.43281 6.404687,6.43438 6.404688,6.43437 6.404687,6.43282 4.298438,-4.27344 4.298437,-4.27344 -5.175,-5.20312 -5.175,-5.20157 -5.175,-5.20156 4.75,-4.73125 4.75,-4.731244 4.75,-4.731256 5.175003,5.19219 5.175,5.19063 5.175,5.19062 4.298429,-4.27344 4.29844,-4.27343 -6.404685,-6.432818 -6.403128,-6.431248 -6.40312,-6.432816 -6.403127,-6.431248 -6.403124,-6.432816 -6.403125,-6.431248 -3.1,3.07344 -21.2,-18.968752 3.645313,-5.028128 7.273437,-5.868744 8.609375,-3.639064 9.267188,-1.267184 9.790624,1.289056 9.293751,3.331256 8.321872,5.310936 7.062499,6.904688 5.78281,8.015624 4.63751,8.729688 3.66562,9.184376 2.85,9.470312 1.49531,9.393744 1.65313,9.368756 0.92656,5.04688 0.85625,5.06093 2.96719,1.85781 2.40781,-2.03125 -0.74375,-9.25 -0.49688,-9.265622 -0.22031,-9.27656 0.0891,-9.279688 0.43906,-9.268752 0.83906,-9.239064 1.29844,-9.187496 1.82812,-9.095312 2.43907,-8.951568 3.12812,-8.732808 3.80937,-8.460944 1.95625,-4.57656 0.11407,-0.354688 0.3125,0 8.66562,0 8.66407,0 8.66562,0 0.98594,0 -0.60938,0.7 -5.25,7.292192 -4.72656,7.643744 -4.2625,7.910944 -3.78281,8.15156 -3.09062,8.387496 -2.42657,8.604688 -1.92812,8.728128 -1.49531,8.814064 -1.09532,8.87344 -0.70781,8.912496 -0.32344,8.93282 0.0625,8.93905 2.34219,4.91407 1.175,0.3375 2.23593,-2.02188 1.76563,-8.26874 1.67968,-8.285948 1.35469,-8.337496 1.82344,-8.993752 2.76407,-8.74844 3.7578,-8.367184 4.79064,-7.821872 5.82343,-7.087504 6.81093,-6.089064 7.74532,-4.843744 8.53125,-3.254688 9.02969,-1.328128 0.61562,0 9.86094,1.407816 8.99375,4.275 7.43594,6.635936 4.23593,5.834376 0.96563,1.965624 -22.35938,16.35 -0.19062,-0.189064 -4.29843,-4.268752 -6.40313,6.431248 -6.40156,6.432816 -6.40157,6.431248 -6.40156,6.432816 -6.40313,6.432808 -6.40156,6.431258 4.29844,4.27343 4.29843,4.27344 5.16407,-5.19062 5.1625,-5.19063 5.16407,-5.19219 4.75624,4.731256 4.75469,4.731244 4.75625,4.73125 -5.17969,5.20156 -5.18125,5.20157 -5.17968,5.20312 4.30156,4.27344 4.30312,4.27344 6.40781,-6.43438 6.40782,-6.43281 6.40625,-6.43281 6.40781,-6.43438 6.40781,-6.43437 6.40782,-6.432818 -4.0672,-4.059368 16.0422,-15.579688 2.52187,1.764056 6.78437,4.943752 5.20313,6.595312 3.40781,7.682816 1.44375,8.276558 -0.83437,9.55 -3.23594,9.02656 -5.22344,8.04844 -6.68125,6.89687 -7.66093,5.79532 -7.63907,4.77812 -8.54062,2.90625 -8.9,1.52657 -9.00625,0.72656 -9.03282,0.29687 -9.03437,0.0703 -7.77812,-0.0391 -7.77969,-0.0594 -8.5875,-0.0578 -0.71563,-0.0734 -3.38593,3 4.39687,3.64844 7.69219,0.29531 8.39687,0.21875 8.39063,0.36562 8.37968,0.58282 8.35313,0.87343 8.30312,1.26719 8.19375,1.8375 8.03125,3.3875 7.50313,4.4375 6.7875,5.46719 5.85937,6.45 4.68282,7.34687 3.23437,8.08594 1.53281,8.57031 -0.37812,8.57344 -2.43437,8.22344 -4.4422,7.33906 -6.08905,6.04688 -7.24219,4.61406 -4.8125,2.50625 -12.12657,-15.74844 1.47188,-1.52656 4.21563,-4.37188 -6.52813,-6.31093 -6.52812,-6.30938 -6.52813,-6.31094 -6.52813,-6.30937 -6.52812,-6.31094 -6.52813,-6.30938 -4.21875,4.35469 -4.22031,4.35626 5.275,5.10937 5.27657,5.10781 5.27656,5.10938 -4.65938,4.80781 -4.66093,4.80781 -4.65938,4.80781 -5.27344,-5.09062 -5.27343,-5.08906 -5.27344,-5.09063 -4.22031,4.36407 -4.21876,4.36406 6.52656,6.30937 6.52657,6.30938 6.52656,6.30781 6.52656,6.30938 6.52657,6.30937 6.52656,6.30781 4.22344,-4.3625 1.61094,-1.66406 14.91875,12.89062 -2.15469,4.4125 -5.50157,7.48907 -7.28281,5.76562 -8.58437,3.54375 -9.22031,1.15782 -9.50625,-1.13282 -9.04219,-3.16094 -8.23907,-4.88906 -7.18281,-6.34218 -5.95624,-7.50938 -4.65626,-8.37812 -3.37969,-8.97188 -1.60312,-8.70469 -1.06875,-8.78906 -0.7625,-8.82031 -0.55625,-8.8375 -0.41094,-8.84219 -0.31562,-8.85 -3.87813,-4.06719 -3.18125,4.10782 -0.59687,5.70156 -0.28126,5.73124 -0.37812,8.26876 -0.54688,8.25937 -0.77343,8.24063 -1.02813,8.21406 -1.30937,8.17344 -3.74063,8.70156 -4.77031,8.18281 -5.83281,7.46094 -6.90781,6.47031 -7.95,5.13282 -8.839065,3.36562 -9.378124,1.18594 -8.1,-0.91563 -7.675,-2.75 -6.875,-4.38437 -5.876563,-5.65782 -3.55625,-5.18124 -1.590625,-2.95782 z"
       style="fill:#100f0d;fill-opacity:1;fill-rule:nonzero;stroke:none" /><path
       id="path4710"
       d="m 287.0155,93.411194 -4.58593,-5.596872 1.64375,-1.315624 2.73749,3.304688 0.77969,-2.12032 1.78438,-3.065624 1.99688,-2.22656 0.37812,-0.304688 1.33906,1.618752 -0.29531,0.32812 -1.8,1.99844 -1.80782,3.187504 -0.88749,3.017184 -0.025,0.156248 -1.25782,1.018752 z"
       style="fill:#100f0d;fill-opacity:1;fill-rule:nonzero;stroke:none" /><path
       id="path3456"
       d="m 243.45925,40.41901 -0.98593,-1.157816 0.12344,-0.271872 0.36093,-1.479688 -0.21406,-1.954688 -0.0406,-0.279688 1.68437,-1.356248 0.19687,0.648432 0.30469,1.439064 0.05,0.517192 5.74375,-4.576568 1.33125,1.626568 -4.27656,3.423432 -4.27813,3.42188 z"
       style="fill:#100f0d;fill-opacity:1;fill-rule:nonzero;stroke:none" /></g></svg>